<svg width="165" height="165" viewBox="0 0 165 165" fill="none" xmlns="http://www.w3.org/2000/svg">
<path d="M33.9834 16.8654C46.1223 7.87059 60.4694 2.43314 75.4224 1.08203V25.8256C65.7566 27.0787 56.5254 30.7794 48.6291 36.6305C38.7418 43.9569 31.4707 54.2669 27.8885 66.0399C24.3062 77.8129 24.6024 90.4254 28.7333 102.017C32.8642 113.609 40.6111 123.567 50.8315 130.421C61.0518 137.275 73.2043 140.663 85.4967 140.086C97.789 139.508 109.57 134.995 119.103 127.213C128.635 119.43 135.414 108.79 138.44 96.8622C140.551 88.542 140.757 79.9024 139.104 71.5733L159.882 54.8691L159.868 54.7344C165.477 70.1632 166.334 86.9485 162.285 102.911C157.962 119.951 148.278 135.151 134.66 146.269C121.042 157.386 104.212 163.833 86.6513 164.658C69.0909 165.483 51.7301 160.643 37.1296 150.851C22.5292 141.06 11.4621 126.835 5.56083 110.275C-0.340466 93.7153 -0.763563 75.6974 4.35394 58.8789C9.47145 42.0603 19.8586 27.3317 33.9834 16.8654Z" fill="#FCCA00"/>
<path d="M144.215 28.4141L144.302 28.6321L130.417 50.6853C125.367 43.2026 118.601 36.9743 110.682 32.5658V82.7519C110.682 98.1496 98.1999 110.632 82.8023 110.632C67.4046 110.632 54.9224 98.1496 54.9224 82.7519C54.9224 67.3543 67.4046 54.872 82.8023 54.872C88.5729 54.872 93.9341 56.6253 98.3822 59.6281V2.23047C116.483 5.71201 132.466 15.1453 144.215 28.4141Z" fill="#FC3F1D"/>
</svg>
